<svg id="Capa_1" data-name="Capa 1" xmlns="http://www.w3.org/2000/svg" viewBox="0 0 136.32 29.83"><title>fitzome-black</title><path d="M1.8,10.83l3-.24h9.83V16H1.8Zm2.64-.48c0-4.28,2-8.08,7.92-8.08A12.71,12.71,0,0,1,16.59,3l-1.2,5a5.89,5.89,0,0,0-2-.4c-1.27,0-2.07.6-2.07,2.48V30.58H4.44Z" transform="translate(-1.8 -1.23)"/><path d="M17.24,4.67a3.52,3.52,0,0,1,3.84-3.44,3.52,3.52,0,0,1,3.84,3.44,3.52,3.52,0,0,1-3.84,3.44A3.52,3.52,0,0,1,17.24,4.67Zm.4,5.92h6.87v20H17.64Z" transform="translate(-1.8 -1.23)"/><path d="M30,22.9V16H27.4V10.83l3-.24.8-5.2h5.67v5.2h4.56V16H36.91v6.83c0,2.2,1.12,2.92,2.4,2.92a5.75,5.75,0,0,0,1.76-.32l1,5a15.11,15.11,0,0,1-4.72.72C32.2,31.06,30,27.78,30,22.9Z" transform="translate(-1.8 -1.23)"/><path d="M44.44,26.9,52,16H45.32V10.59H60.59v3.68l-7.6,11h7.84v5.36H44.44Z" transform="translate(-1.8 -1.23)"/><path d="M62.68,20.58c0-6.63,4.8-10.47,9.91-10.47S82.51,14,82.51,20.58s-4.8,10.48-9.92,10.48S62.68,27.22,62.68,20.58Zm12.79,0c0-3-.8-4.95-2.88-4.95s-2.88,1.91-2.88,4.95.8,5,2.88,5S75.47,23.62,75.47,20.58Z" transform="translate(-1.8 -1.23)"/><path d="M86.12,10.59h5.59L92.19,13h.16c1.6-1.56,3.28-2.92,6-2.92a5.66,5.66,0,0,1,5.52,3.2c1.64-1.68,3.44-3.2,6.16-3.2,4.4,0,6.32,3.2,6.32,8.15V30.58h-6.88V19.14c0-2.55-.64-3.19-2-3.19a4.3,4.3,0,0,0-2.8,1.51V30.58H97.79V19.14c0-2.55-.64-3.19-2-3.19A4.3,4.3,0,0,0,93,17.46V30.58H86.12Z" transform="translate(-1.8 -1.23)"/><path d="M119.8,20.58c0-6.47,4.71-10.47,9.59-10.47,5.92,0,8.72,4.32,8.72,9.67a14.3,14.3,0,0,1-.28,2.88h-11.4c.64,2.4,2.4,3.2,4.64,3.2a8.21,8.21,0,0,0,4.08-1.2l2.24,4.08a13.47,13.47,0,0,1-7.28,2.32C124.27,31.06,119.8,27.22,119.8,20.58Zm12.47-2.4c0-1.51-.64-2.87-2.72-2.87a3.17,3.17,0,0,0-3.2,2.87Z" transform="translate(-1.8 -1.23)"/></svg>